<svg width="109" height="27" viewBox="0 0 109 27" fill="none" xmlns="http://www.w3.org/2000/svg">
<g clip-path="url(#clip0_19_23)">
<path d="M16.5507 13.6088L13.0084 10.0365L5.62364 16.8759C5.43367 17.0367 5.19612 17.1307 4.94753 17.1434C4.69894 17.156 4.45307 17.0867 4.24775 16.946L3.81747 16.5107L1.2408 18.9072C1.05183 19.0733 0.902169 19.2793 0.802654 19.5103C0.703139 19.7414 0.656267 19.9917 0.665433 20.2431L2.05133 25.6766C2.05133 26.0769 2.69675 26.257 3.05198 25.9618L16.5107 14.8296C16.601 14.7569 16.6746 14.6655 16.7264 14.5618C16.7782 14.458 16.807 14.3443 16.8108 14.2284C16.8146 14.1125 16.7933 13.9971 16.7484 13.8902C16.7036 13.7832 16.6361 13.6873 16.5507 13.6088Z" fill="#262D3B"/>
<path d="M12.5631 9.61131L12.9884 10.0366L15.5601 7.64004C15.7496 7.47522 15.9 7.27027 16.0004 7.04006C16.1007 6.80986 16.1486 6.56019 16.1404 6.30918L14.7145 0.430377C14.7145 0.0301183 14.0691 -0.149998 13.7139 0.145193L0.300205 11.7277C0.209847 11.8004 0.136252 11.8917 0.0844515 11.9955C0.0326511 12.0993 0.00386679 12.213 6.64349e-05 12.3289C-0.00373392 12.4448 0.0175393 12.5602 0.0624317 12.6671C0.107324 12.774 0.174777 12.87 0.260179 12.9485L3.81748 16.5108L11.1872 9.67635C11.3782 9.51704 11.6159 9.42447 11.8643 9.41273C12.1126 9.40098 12.358 9.47072 12.5631 9.61131Z" fill="#262D3B"/>
</g>
<path d="M29.4459 16.5834C29.8859 16.5834 30.2459 16.5501 30.5259 16.4834C30.8192 16.4034 31.0526 16.3034 31.2259 16.1834C31.3992 16.0501 31.5192 15.8968 31.5859 15.7234C31.6526 15.5501 31.6859 15.3568 31.6859 15.1434C31.6859 14.6901 31.4726 14.3168 31.0459 14.0234C30.6192 13.7168 29.8859 13.3901 28.8459 13.0434C28.3926 12.8834 27.9392 12.7034 27.4859 12.5034C27.0326 12.2901 26.6259 12.0301 26.2659 11.7234C25.9059 11.4034 25.6126 11.0234 25.3859 10.5834C25.1592 10.1301 25.0459 9.58344 25.0459 8.94344C25.0459 8.30344 25.1659 7.7301 25.4059 7.22344C25.6459 6.70344 25.9859 6.26344 26.4259 5.90343C26.8659 5.54344 27.3992 5.2701 28.0259 5.08344C28.6526 4.88344 29.3592 4.78344 30.1459 4.78344C31.0792 4.78344 31.8859 4.88344 32.5659 5.08344C33.2459 5.28344 33.8059 5.50344 34.2459 5.74344L33.3459 8.20343C32.9592 8.00344 32.5259 7.8301 32.0459 7.68344C31.5792 7.52344 31.0126 7.44344 30.3459 7.44344C29.5992 7.44344 29.0592 7.5501 28.7259 7.76344C28.4059 7.96344 28.2459 8.27677 28.2459 8.70344C28.2459 8.95677 28.3059 9.1701 28.4259 9.34344C28.5459 9.51677 28.7126 9.67677 28.9259 9.82344C29.1526 9.95677 29.4059 10.0834 29.6859 10.2034C29.9792 10.3101 30.2992 10.4234 30.6459 10.5434C31.3659 10.8101 31.9926 11.0768 32.5259 11.3434C33.0592 11.5968 33.4992 11.8968 33.8459 12.2434C34.2059 12.5901 34.4726 12.9968 34.6459 13.4634C34.8192 13.9301 34.9059 14.4968 34.9059 15.1634C34.9059 16.4568 34.4526 17.4634 33.5459 18.1834C32.6392 18.8901 31.2726 19.2434 29.4459 19.2434C28.8326 19.2434 28.2792 19.2034 27.7859 19.1234C27.2926 19.0568 26.8526 18.9701 26.4659 18.8634C26.0926 18.7568 25.7659 18.6434 25.4859 18.5234C25.2192 18.4034 24.9926 18.2901 24.8059 18.1834L25.6859 15.7034C26.0992 15.9301 26.6059 16.1368 27.2059 16.3234C27.8192 16.4968 28.5659 16.5834 29.4459 16.5834Z" fill="#09090B"/>
<path d="M46.0865 18.6034C45.5799 18.7501 44.9265 18.8834 44.1265 19.0034C43.3265 19.1368 42.4865 19.2034 41.6065 19.2034C40.7132 19.2034 39.9665 19.0834 39.3665 18.8434C38.7799 18.6034 38.3132 18.2701 37.9665 17.8434C37.6199 17.4034 37.3732 16.8834 37.2265 16.2834C37.0799 15.6834 37.0065 15.0234 37.0065 14.3034V8.44344H39.9865V13.9434C39.9865 14.9034 40.1132 15.5968 40.3665 16.0234C40.6199 16.4501 41.0932 16.6634 41.7865 16.6634C41.9999 16.6634 42.2265 16.6568 42.4665 16.6434C42.7065 16.6168 42.9199 16.5901 43.1065 16.5634V8.44344H46.0865V18.6034Z" fill="#09090B"/>
<path d="M55.6239 13.6234C55.6239 11.7034 54.9172 10.7434 53.5039 10.7434C53.1972 10.7434 52.8905 10.7834 52.5839 10.8634C52.2905 10.9434 52.0505 11.0434 51.8639 11.1634V16.5834C52.0105 16.6101 52.1972 16.6368 52.4239 16.6634C52.6505 16.6768 52.8972 16.6834 53.1639 16.6834C53.9772 16.6834 54.5905 16.4034 55.0039 15.8434C55.4172 15.2834 55.6239 14.5434 55.6239 13.6234ZM58.6639 13.7034C58.6639 14.5434 58.5372 15.3034 58.2839 15.9834C58.0439 16.6634 57.6905 17.2434 57.2239 17.7234C56.7572 18.2034 56.1839 18.5768 55.5039 18.8434C54.8239 19.0968 54.0505 19.2234 53.1839 19.2234C52.8239 19.2234 52.4439 19.2034 52.0439 19.1634C51.6572 19.1368 51.2705 19.0968 50.8839 19.0434C50.5105 18.9901 50.1505 18.9301 49.8039 18.8634C49.4572 18.7834 49.1505 18.7034 48.8839 18.6234V3.92344L51.8639 3.44344V8.68344C52.1972 8.53677 52.5439 8.42344 52.9039 8.34344C53.2639 8.26344 53.6505 8.22344 54.0639 8.22344C54.8105 8.22344 55.4705 8.35677 56.0439 8.62344C56.6172 8.87677 57.0972 9.24344 57.4839 9.72344C57.8705 10.2034 58.1639 10.7834 58.3639 11.4634C58.5639 12.1301 58.6639 12.8768 58.6639 13.7034Z" fill="#09090B"/>
<path d="M65.1542 19.1634C64.2875 19.1501 63.5809 19.0568 63.0342 18.8834C62.5009 18.7101 62.0742 18.4701 61.7542 18.1634C61.4475 17.8434 61.2342 17.4634 61.1142 17.0234C61.0075 16.5701 60.9542 16.0634 60.9542 15.5034V3.92344L63.9342 3.44344V14.9034C63.9342 15.1701 63.9542 15.4101 63.9942 15.6234C64.0342 15.8368 64.1075 16.0168 64.2142 16.1634C64.3342 16.3101 64.5009 16.4301 64.7142 16.5234C64.9275 16.6168 65.2142 16.6768 65.5742 16.7034L65.1542 19.1634Z" fill="#09090B"/>
<path d="M76.4075 8.44344C75.8075 10.4701 75.1808 12.3701 74.5275 14.1434C73.8741 15.9168 73.1608 17.6368 72.3875 19.3034C72.1075 19.9034 71.8275 20.4101 71.5475 20.8234C71.2675 21.2501 70.9608 21.5968 70.6275 21.8634C70.2941 22.1434 69.9141 22.3434 69.4875 22.4634C69.0741 22.5968 68.5875 22.6634 68.0275 22.6634C67.5608 22.6634 67.1275 22.6168 66.7275 22.5234C66.3408 22.4434 66.0208 22.3501 65.7675 22.2434L66.2875 19.8634C66.5941 19.9701 66.8675 20.0434 67.1075 20.0834C67.3475 20.1234 67.6008 20.1434 67.8675 20.1434C68.4008 20.1434 68.8075 19.9968 69.0875 19.7034C69.3808 19.4234 69.6275 19.0301 69.8275 18.5234C69.1475 17.1901 68.4675 15.6968 67.7875 14.0434C67.1075 12.3768 66.4675 10.5101 65.8675 8.44344H69.0275C69.1608 8.96344 69.3141 9.5301 69.4875 10.1434C69.6741 10.7434 69.8675 11.3568 70.0675 11.9834C70.2675 12.5968 70.4675 13.1968 70.6675 13.7834C70.8808 14.3701 71.0808 14.9034 71.2675 15.3834C71.4408 14.9034 71.6208 14.3701 71.8075 13.7834C71.9941 13.1968 72.1741 12.5968 72.3475 11.9834C72.5341 11.3568 72.7075 10.7434 72.8675 10.1434C73.0408 9.5301 73.1941 8.96344 73.3275 8.44344H76.4075Z" fill="#09090B"/>
<path d="M90.0459 18.9634C89.8192 18.3634 89.6059 17.7768 89.4059 17.2034C89.2059 16.6168 88.9992 16.0234 88.7859 15.4234H82.5059L81.2459 18.9634H79.2259C79.7592 17.4968 80.2592 16.1434 80.7259 14.9034C81.1926 13.6501 81.6459 12.4634 82.0859 11.3434C82.5392 10.2234 82.9859 9.15677 83.4259 8.14344C83.8659 7.11677 84.3259 6.10344 84.8059 5.10344H86.5859C87.0659 6.10344 87.5259 7.11677 87.9659 8.14344C88.4059 9.15677 88.8459 10.2234 89.2859 11.3434C89.7392 12.4634 90.1992 13.6501 90.6659 14.9034C91.1326 16.1434 91.6326 17.4968 92.1659 18.9634H90.0459ZM88.2259 13.8234C87.7992 12.6634 87.3726 11.5434 86.9459 10.4634C86.5326 9.3701 86.0992 8.32344 85.6459 7.32344C85.1792 8.32344 84.7326 9.3701 84.3059 10.4634C83.8926 11.5434 83.4792 12.6634 83.0659 13.8234H88.2259Z" fill="#52525C"/>
<path d="M97.7276 4.96344C99.6743 4.96344 101.168 5.33677 102.208 6.08344C103.261 6.81677 103.788 7.91677 103.788 9.38344C103.788 10.1834 103.641 10.8701 103.348 11.4434C103.068 12.0034 102.654 12.4634 102.108 12.8234C101.574 13.1701 100.921 13.4234 100.148 13.5834C99.3743 13.7434 98.501 13.8234 97.5276 13.8234H95.9876V18.9634H94.0476V5.30344C94.5943 5.1701 95.201 5.08344 95.8676 5.04344C96.5476 4.9901 97.1676 4.96344 97.7276 4.96344ZM97.8876 6.66344C97.061 6.66344 96.4276 6.68344 95.9876 6.72344V12.1634H97.4476C98.1143 12.1634 98.7143 12.1234 99.2476 12.0434C99.781 11.9501 100.228 11.8034 100.588 11.6034C100.961 11.3901 101.248 11.1034 101.448 10.7434C101.648 10.3834 101.748 9.92344 101.748 9.36344C101.748 8.8301 101.641 8.3901 101.428 8.04344C101.228 7.69677 100.948 7.42344 100.588 7.22344C100.241 7.0101 99.8343 6.86344 99.3676 6.78344C98.901 6.70344 98.4076 6.66344 97.8876 6.66344Z" fill="#52525C"/>
<path d="M106.216 5.10344H108.156V18.9634H106.216V5.10344Z" fill="#52525C"/>
<defs>
<clipPath id="clip0_19_23">
<rect width="16.8059" height="26.1069" fill="white"/>
</clipPath>
</defs>
</svg>
